<?xml version="1.0" standalone="no"?>
<!DOCTYPE svg PUBLIC "-//W3C//DTD SVG 20010904//EN"
 "http://www.w3.org/TR/2001/REC-SVG-20010904/DTD/svg10.dtd">
<svg version="1.0" xmlns="http://www.w3.org/2000/svg"
 width="16.000000pt" height="16.000000pt" viewBox="0 0 16.000000 16.000000"
 preserveAspectRatio="xMidYMid meet">
<metadata>
Created by potrace 1.11, written by Peter Selinger 2001-2013
</metadata>
<g transform="translate(0.000000,16.000000) scale(0.016667,-0.016667)"
fill="#000000" stroke="none">
<path d="M416 952 c-2 -1 -17 -4 -34 -7 -17 -2 -36 -6 -42 -10 -5 -3 -20 -8
-31 -10 -12 -3 -29 -11 -39 -20 -9 -8 -20 -12 -23 -8 -4 3 -7 1 -7 -5 0 -7 -4
-12 -10 -12 -27 0 -173 -151 -162 -168 2 -2 -1 -8 -8 -12 -6 -4 -12 -13 -13
-21 -2 -8 -6 -20 -10 -26 -5 -7 -10 -23 -13 -35 -3 -13 -8 -34 -11 -48 -7 -33
-10 -152 -4 -165 3 -5 6 -14 6 -20 3 -34 19 -85 27 -85 5 0 6 -4 3 -10 -3 -5
-1 -10 4 -10 6 0 10 -3 9 -7 -3 -9 17 -46 40 -76 34 -42 116 -116 124 -111 4
3 8 1 8 -3 0 -12 56 -44 64 -36 3 3 6 1 6 -5 0 -7 3 -11 8 -11 4 1 10 0 15 -1
4 -1 12 -4 17 -5 6 -1 11 -4 13 -5 5 -5 66 -11 127 -12 73 -1 118 5 146 20 11
5 24 11 29 13 6 1 18 4 28 7 9 2 17 9 17 14 0 5 5 6 10 3 6 -3 13 1 16 9 3 9
10 14 14 11 19 -12 172 167 175 205 1 3 6 15 13 28 7 12 10 27 7 32 -3 6 -2
10 4 10 5 0 8 9 6 20 -2 11 -1 21 3 24 11 6 4 196 -7 196 -3 0 -7 12 -8 27 0
15 -6 29 -12 31 -6 2 -9 8 -5 13 3 5 0 9 -5 9 -6 0 -10 3 -9 8 6 22 -72 120
-138 172 -39 31 -91 60 -97 53 -4 -3 -7 -1 -7 5 0 7 -3 11 -7 11 -5 -1 -11 0
-15 1 -5 1 -12 4 -18 5 -5 1 -11 4 -12 5 -9 7 -186 19 -192 12z"/>
</g>
</svg>
